#FILENAME=af0d990e
# xmcd CD database file
# Copyright (C) 1995-1998 Ti Kan
#
# Track frame offsets:
#	150
#	15257
#	34744
#	54151
#	84301
#	100093
#	121387
#	138757
#	157471
#	182123
#	215563
#	230832
#	232859
#	241319
#
# Disc length: 3483 seconds
#
# Revision: 34552348
# Submitted via:  KiC 2.2.06 - (C) 1996-1998 Alwin Hoogerdijk
#
DISCID=af0d990e
DTITLE=Various Artists / Music From the Motion Picture The Wedding Singer
TTITLE0=The Presidents of the United States of America / Video Killed the Ra
TTITLE0=dio Star
TTITLE1=Boy George And Culture Club / Do You Really Want to Hurt Me
TTITLE2=The Police / Every Little Thing She Does Is Magic
TTITLE3=The Smiths / How Soon Is Now?
TTITLE4=Psychedelic Furs / Love My Way
TTITLE5=The Thompson Twins / Hold Me Now
TTITLE6=Elvis Costello / Everyday I Write The Book
TTITLE7=Billy Idol / White Wedding
TTITLE8=David Bowie / China Girl
TTITLE9=New Order / Blue Monday
TTITLE10=Musical Youth / Pass The Dutchie
TTITLE11=Have You Written Anything Lately?
TTITLE12=Adam Sandler / Somebody Kill Me
TTITLE13=Ellen Dow / Rapper's Delight (Medley)
EXTD=\nYEAR: 1999  ID3G:  24
EXTT0=
EXTT1=
EXTT2=
EXTT3=
EXTT4=
EXTT5=
EXTT6=
EXTT7=
EXTT8=
EXTT9=
EXTT10=
EXTT11=
EXTT12=
EXTT13=
PLAYORDER=
